<?xml version="1.0" encoding="UTF-8" standalone="no"?>
<!-- Created with Inkscape (http://www.inkscape.org/) -->

<svg
   width="128.68726mm"
   height="76.0121mm"
   viewBox="0 0 486.37704 287.28983"
   version="1.1"
   id="svg1"
   xml:space="preserve"
   xmlns:inkscape="http://www.inkscape.org/namespaces/inkscape"
   xmlns:sodipodi="http://sodipodi.sourceforge.net/DTD/sodipodi-0.dtd"
   xmlns="http://www.w3.org/2000/svg"
   xmlns:svg="http://www.w3.org/2000/svg"><sodipodi:namedview
     id="namedview1"
     pagecolor="#ffffff"
     bordercolor="#000000"
     borderopacity="0.25"
     inkscape:showpageshadow="2"
     inkscape:pageopacity="0.0"
     inkscape:pagecheckerboard="0"
     inkscape:deskcolor="#d1d1d1"
     inkscape:document-units="mm" /><defs
     id="defs1" /><g
     inkscape:label="Layer 1"
     inkscape:groupmode="layer"
     id="layer1"
     transform="translate(-153.66211,-370.58617)"><path
       id="path13"
       style="fill:#000000"
       d="m 584.15431,370.5879 c -2.53955,0.0194 -5.42007,0.20018 -8.71094,0.51758 -18.01824,1.73781 -22.07712,2.94473 -68.28125,20.31054 -12.92393,4.85747 -15.51176,6.20142 -18.69922,9.70508 -8.14853,8.95691 -5.65597,22.92188 5.10547,28.59766 5.8517,3.08629 9.00049,2.94562 23.95313,-1.07031 6.95199,-1.86714 14.21562,-3.70407 16.14062,-4.08399 11.32195,-2.23445 39.92371,-9.90057 48.22852,-12.92578 14.43277,-5.25743 19.23809,-8.6832 22.23242,-15.84961 2.09099,-5.00444 1.93355,-8.92667 -0.57422,-14.26172 -3.79297,-8.0692 -8.38983,-11.02342 -19.39453,-10.93945 z m -384.82227,11.60937 c -4.87064,-0.0199 -7.30258,0.52757 -9.38477,1.51563 -10.90557,5.17503 -13.22276,20.62881 -4.41406,29.4375 4.07694,4.07695 5.16537,4.43137 25.6289,8.35547 7.7,1.47656 22.55002,4.62932 33.00001,7.00586 17.03959,3.87513 27.16115,5.79787 44.5,8.45508 8.38379,1.28483 11.18669,1.21087 16.76367,-0.44532 13.08411,-3.88555 18.54782,-17.35119 11.30859,-27.87304 -1.75398,-2.54932 -4.21935,-5.30907 -5.47656,-6.13282 -7.61231,-4.98778 -35.68801,-12.24748 -57.5957,-14.89257 -31.32242,-3.78183 -46.21236,-5.39258 -54.33008,-5.42579 z m 363.3379,82.73243 c -9.98293,0.12864 -20.46792,2.32812 -31.50782,6.59961 -17.45806,6.75476 -26.43772,11.51902 -34.26758,18.17773 -7.96047,6.76981 -8.37406,7.21164 -18.85351,20.21094 -7.36771,9.13931 -10.32459,13.79552 -13.82227,21.77149 -7.26849,16.57482 -8.02757,20.39163 -8.04297,40.35547 -0.016,20.79101 1.48708,27.42531 9.82813,43.33789 4.17237,7.95982 6.68504,11.30709 13.16015,17.53515 4.4015,4.23357 10.47651,9.11019 13.5,10.83789 7.39346,4.22483 18.87225,7.95725 27.99805,9.10547 17.88162,2.2499 41.46244,-2.98397 58.29688,-12.9414 5.8525,-3.46172 7.15531,-4.77572 9.36719,-9.44727 3.77754,-7.97831 13.35052,-15.33945 20.03515,-15.40625 2.82642,-0.0282 6.93786,-4.42507 13.95313,-14.91992 9.8964,-14.80505 14.8462,-28.51339 17.25195,-47.78125 1.19962,-9.60789 0.0566,-22.21422 -2.75586,-30.38868 -2.15498,-6.26353 -7.4549,-17.06157 -9.35742,-19.0664 -0.71253,-0.75085 -2.46823,-3.16524 -3.90234,-5.36524 -7.40086,-11.35322 -18.71228,-20.71025 -32.38868,-26.78906 -9.02834,-4.01287 -18.50926,-5.95482 -28.49218,-5.82617 z m -322.90822,7.24609 c -11.66357,-0.15902 -17.3019,1.18987 -26.76171,5.76367 -4.31117,2.08443 -9.59743,4.11837 -11.74805,4.52149 -5.72018,1.07224 -12.28244,8.35085 -25.90625,28.73437 -17.33606,25.93765 -21.6836,37.84284 -21.6836,59.37696 0,6.71496 0.66298,15.9803 1.47461,20.58984 1.67554,9.51587 5.89189,23.16116 8.30664,26.88282 0.89216,1.375 2.54348,4.17701 3.66993,6.22851 1.12645,2.0515 4.18347,6.66401 6.79296,10.25 l 4.74414,6.52149 8.25586,0.01 c 10.58505,0.0125 16.3663,2.53318 23.13868,10.08789 3.65625,4.07861 5.73488,5.55068 8.48047,6.00977 6.33748,1.05968 30.2896,0.92855 39.6289,-0.2168 10.72805,-1.31567 30.53639,-7.48635 43.00782,-13.39844 14.25668,-6.75837 26.96427,-15.85295 34.22265,-24.49218 7.40636,-8.81537 14.29457,-21.58243 17.28711,-32.03907 2.62733,-9.18049 3.76514,-30.53447 2.10157,-39.46094 -1.46818,-7.87805 -9.85619,-24.20145 -16.82618,-32.74414 -5.23679,-6.41843 -15.90424,-15.72639 -21.28515,-18.57226 -1.375,-0.72722 -5.65001,-3.04499 -9.5,-5.15039 -8.9208,-4.87845 -27.92687,-12.35598 -39.79493,-15.65625 -6.80667,-1.89281 -12.59401,-2.69917 -22.20898,-3.0918 -1.94086,-0.0793 -3.73026,-0.13158 -5.39649,-0.1543 z m 321.57618,11.92383 c 4.14946,-0.12085 8.13247,0.14219 11.82422,0.82422 16.68641,3.08273 30.92709,15.19494 40.78711,34.69141 7.8078,15.43853 7.26665,34.64739 -1.58203,56.18359 -6.77793,16.49635 -18.84505,30.14207 -37.70508,42.63477 -11.22816,7.43742 -16.45187,9.93551 -26.24023,12.55078 -15.11837,4.03935 -28.25348,3.38997 -41.17774,-2.03516 -6.28973,-2.64019 -8.75906,-4.41194 -14.34179,-10.29687 -12.11067,-12.76626 -18.22028,-28.64863 -18.23438,-47.40039 -0.0102,-13.53911 2.20483,-22.88208 8.46289,-35.70704 6.32177,-12.95554 13.15635,-21.59078 24.71875,-31.22461 14.37323,-11.97582 35.50731,-19.69702 53.48828,-20.2207 z m -321.81446,5.92578 c 9.39106,0.0827 20.30726,1.97951 29.36719,5.41602 11.59238,4.39708 26.86342,11.52144 35,16.33008 24.16704,14.28245 34.97672,36.13698 30.35938,61.375 -3.40901,18.6333 -8.39319,28.5459 -18.29492,36.38672 -11.21447,8.88033 -21.98237,15.51942 -31.33985,19.32031 -11.31634,4.59655 -15.92505,5.80815 -29.29492,7.70898 -18.53378,2.63502 -38.85573,1.40704 -51.39844,-3.10742 -8.94383,-3.21912 -10.98495,-4.79973 -16.34375,-12.65039 -10.50078,-15.38363 -13.98225,-26.7832 -14.66211,-48.00586 -0.44941,-14.0291 -0.33961,-15.14505 2.25391,-23 4.94826,-14.98675 14.68614,-31.5702 24.22461,-41.25391 5.9299,-6.02021 18.50347,-14.19676 25.60351,-16.65039 3.80564,-1.31515 8.89076,-1.91877 14.52539,-1.86914 z m 304.27149,43.0918 c -0.83817,-0.005 -1.78845,0.038 -2.89062,0.12109 -7.45652,0.56202 -12.62897,3.10158 -18.48047,9.07618 -12.00826,12.26084 -9.24963,32.85141 5.24414,39.13672 4.25452,1.84499 11.85758,2.01442 17.29688,0.38476 6.12905,-1.83631 15.43198,-10.96908 18.86523,-18.51953 1.55756,-3.42542 2.82731,-7.25042 2.82031,-8.5 -0.0226,-4.29943 -6.33808,-14.03073 -10.5664,-16.28125 -2.15708,-1.1481 -5.16328,-2.90634 -6.67969,-3.9082 -1.58743,-1.04905 -3.09486,-1.49375 -5.60938,-1.50977 z m -291.05664,6.21875 c -4.72553,-0.0458 -9.4531,1.19567 -13.45313,3.73242 -5.19325,3.29346 -14.11316,14.70473 -15.61523,19.97657 -1.24533,4.37074 -1.30222,13.11439 -0.10547,16.18359 1.34001,3.43661 7.05197,8.85876 11.59765,11.00977 8.29775,3.92648 24.10334,0.0624 32.72266,-8.00001 6.65422,-6.22423 9.03168,-11.8642 8.57813,-20.34765 -0.29758,-5.56612 -0.90089,-7.45067 -3.68946,-11.53711 -1.83315,-2.68635 -4.80124,-5.84782 -6.59765,-7.02539 -3.98799,-2.61419 -8.71197,-3.94638 -13.4375,-3.99219 z" /></g></svg>
