<?xml version="1.0" encoding="UTF-8" standalone="no"?>
<!-- Created with Inkscape (http://www.inkscape.org/) -->

<svg
   width="106.77326mm"
   height="124.45465mm"
   viewBox="0 0 403.5525 470.37979"
   version="1.1"
   id="svg1"
   xml:space="preserve"
   sodipodi:docname="commg.svg"
   inkscape:version="1.3.2 (091e20e, 2023-11-25, custom)"
   xmlns:inkscape="http://www.inkscape.org/namespaces/inkscape"
   xmlns:sodipodi="http://sodipodi.sourceforge.net/DTD/sodipodi-0.dtd"
   xmlns="http://www.w3.org/2000/svg"
   xmlns:svg="http://www.w3.org/2000/svg"><sodipodi:namedview
     id="namedview1"
     pagecolor="#ffffff"
     bordercolor="#000000"
     borderopacity="0.25"
     inkscape:showpageshadow="2"
     inkscape:pageopacity="0.0"
     inkscape:pagecheckerboard="0"
     inkscape:deskcolor="#d1d1d1"
     inkscape:document-units="mm"
     inkscape:zoom="0.82592835"
     inkscape:cx="149.52871"
     inkscape:cy="235.49258"
     inkscape:window-width="1920"
     inkscape:window-height="991"
     inkscape:window-x="-9"
     inkscape:window-y="-9"
     inkscape:window-maximized="1"
     inkscape:current-layer="layer1" /><defs
     id="defs1" /><g
     inkscape:label="Layer 1"
     inkscape:groupmode="layer"
     id="layer1"
     transform="translate(-189.72701,-236.77435)"><path
       style="fill:#595552;fill-opacity:1"
       d="m 366.50945,617.54219 c -11.66384,-1.11401 -24.10596,-3.48067 -36.26427,-6.89796 -76.18485,-21.41297 -132.58913,-90.83878 -139.89501,-172.19128 -2.27631,-25.34716 1.73846,-53.01378 11.14595,-76.80909 17.49131,-44.24255 55.38548,-84.65292 99.46156,-106.06588 23.19996,-11.27097 40.67092,-15.51925 69.89758,-16.99646 10.53481,-0.53247 24.13424,-1.24998 30.22097,-1.59447 27.43894,-1.55297 60.59314,5.47311 87.93322,18.63493 49.75584,23.95302 85.52552,67.01542 98.58496,118.68443 21.21686,83.9435 -18.30356,173.18175 -95.99958,216.76981 -37.52016,21.0491 -82.39328,30.5435 -125.08538,26.46597 z m 54.56587,-14.78372 c 83.67656,-15.80417 143.55218,-74.74939 157.07267,-154.63191 2.0701,-12.23067 2.34682,-41.38197 0.50311,-53 -7.81434,-49.24153 -32.73473,-88.72209 -72.99502,-115.64359 -35.42099,-23.68553 -81.3922,-34.2615 -123.13835,-28.32874 -10.10433,1.43597 -10.58955,1.41869 -13.14146,-0.46802 l -2.64975,-1.95904 -10.85854,2.87473 c -74.63213,19.75841 -125.13516,62.42348 -144.86578,122.38295 -6.49016,19.72298 -7.9141,28.72065 -7.93522,50.14171 -0.0191,19.3793 0.85422,26.36466 5.53519,44.27351 10.66973,40.82114 37.3557,79.56431 71.98734,104.51249 11.12325,8.01305 33.70907,19.47948 46.52107,23.61796 9.83459,3.17672 25.00621,6.63388 35.39887,8.06634 11.60233,1.59919 46.09849,0.51636 58.56587,-1.83839 z m -45.56587,-54.80191 c -47.17965,-2.57374 -80.41562,-18.75562 -93.89575,-45.71583 -4.2966,-8.59318 -5.86298,-14.99503 -4.1685,-17.03675 2.64536,-3.18747 4.82036,-1.75824 10.43682,6.85815 14.83304,22.7559 35.56153,35.38874 67.62743,41.21509 11.84418,2.15208 46.06842,2.4136 59.5,0.45467 31.41678,-4.58199 52.7313,-14.23958 66.9867,-30.35159 2.55659,-2.88956 6.93814,-9.90787 9.73678,-15.59624 5.64409,-11.4719 7.6724,-13.27084 12.41319,-11.00943 4.30392,2.05302 4.29981,6.34753 -0.0148,15.43281 -13.26226,27.92655 -38.18858,44.85988 -77.0841,52.36594 -9.28866,1.79252 -38.56159,4.36145 -44.0378,3.86465 -1.1,-0.0998 -4.475,-0.31645 -7.5,-0.48147 z m 58.33794,-141.32863 c -2.76927,-1.11672 -3.06911,-2.20811 -4.32964,-15.75974 -1.04321,-11.21534 0.0276,-31.77657 1.73461,-33.30565 0.4164,-0.373 3.05983,-0.93291 5.8743,-1.24424 6.94876,-0.76866 8.91807,0.75275 10.43548,8.06205 2.81195,13.54511 -1.24384,35.52008 -7.56643,40.99621 -2.85759,2.47501 -3.02791,2.50968 -6.14832,1.25137 z m -88.68295,-4.83011 c -1.41486,-1.5634 -1.65499,-4.52183 -1.65499,-20.38922 0,-20.93838 0.4306,-22.35162 7.13742,-23.42503 4.89777,-0.78388 7.32919,1.75857 8.89725,9.30351 2.11243,10.16431 -0.16635,25.2327 -5.00411,33.08948 -2.32629,3.77801 -6.64963,4.43339 -9.37557,1.42126 z"
       id="path1" /><path
       id="text1"
       style="font-style:normal;font-variant:normal;font-weight:normal;font-stretch:normal;font-size:59.6292px;font-family:'Comic Sans MS';-inkscape-font-specification:'Comic Sans MS, Normal';font-variant-ligatures:normal;font-variant-caps:normal;font-variant-numeric:normal;font-variant-east-asian:normal;text-align:center;letter-spacing:0px;word-spacing:0px;text-anchor:middle;fill:#595552;stroke-width:5;stroke-linecap:round;stroke-linejoin:round;fill-opacity:1"
       d="M 226.88326 646.38959 C 225.79627 646.38959 224.91224 646.88403 224.23287 647.87396 C 223.65055 647.67986 222.98011 647.5434 222.2231 647.46576 C 221.46609 647.36871 220.61367 647.32123 219.66256 647.32123 C 214.98462 647.32123 210.34488 650.20279 205.74459 655.96771 C 200.232 662.87786 197.47506 669.62387 197.47506 676.20404 C 197.47506 680.28025 198.81398 683.81248 201.49264 686.8017 C 204.26834 689.88797 207.66606 691.4306 211.68404 691.4306 C 216.92488 691.4306 222.10654 689.16017 227.23092 684.6181 C 227.96852 683.95815 228.33834 683.19275 228.33834 682.31928 C 228.33834 681.54286 228.05749 680.84276 227.49459 680.22162 C 226.93168 679.58107 226.23158 679.26068 225.39693 679.26068 C 224.83403 679.26068 223.99943 679.6681 222.89303 680.48334 C 220.56376 682.19147 218.8372 683.33657 217.71139 683.91889 C 215.69269 684.94764 213.68333 685.46185 211.68404 685.46185 C 209.35478 685.46185 207.36519 684.53034 205.71529 682.66693 C 204.10422 680.86175 203.29928 678.708 203.29928 676.20404 C 203.29928 671.02143 205.62708 665.53721 210.2856 659.75287 C 213.72127 655.44373 216.84803 653.28998 219.66256 653.28998 C 221.27363 653.28998 222.28228 653.39678 222.6899 653.61029 C 223.15575 653.88204 223.66008 654.6395 224.20357 655.88178 C 224.82471 657.33757 225.75622 658.06537 226.99849 658.06537 C 227.96902 658.06537 228.7166 657.68566 229.24068 656.92865 C 229.66771 656.32693 229.88131 655.62878 229.88131 654.83295 C 229.88131 652.54251 229.72703 650.61028 229.41646 649.03803 C 229.06707 647.27167 228.22259 646.38959 226.88326 646.38959 z M 364.39693 647.1181 C 363.46523 647.1181 362.65833 647.44643 361.97896 648.10639 C 361.2996 648.76634 360.96139 649.56335 360.96139 650.49506 C 360.96139 651.42676 361.2996 652.22182 361.97896 652.88178 C 362.65833 653.54173 363.46523 653.87201 364.39693 653.87201 C 365.32864 653.87201 366.12369 653.54173 366.78365 652.88178 C 367.46302 652.22182 367.80318 651.42676 367.80318 650.49506 C 367.80318 649.56335 367.46302 648.76634 366.78365 648.10639 C 366.12369 647.44643 365.32864 647.1181 364.39693 647.1181 z M 477.36568 648.02045 C 473.36712 648.02045 469.49473 649.36926 465.7485 652.06732 C 461.82757 654.92067 459.86764 658.07514 459.86764 661.53021 C 459.86764 664.4612 461.24611 666.71187 464.0024 668.28412 C 466.15697 669.50698 468.76757 670.17742 471.83443 670.29389 C 475.28951 670.39094 478.19084 671.04954 480.53951 672.2724 C 483.31522 673.68937 484.70358 675.6216 484.70358 678.06732 C 484.70358 681.03713 483.05219 683.357 479.7524 685.02631 C 477.1708 686.32681 474.37627 686.97748 471.36764 686.97748 C 468.22313 686.97748 465.82613 686.43361 464.17623 685.34662 C 463.39981 684.82254 462.51578 683.82182 461.52584 682.34662 C 460.80765 681.25963 459.97305 680.71771 459.02193 680.71771 C 458.18728 680.71771 457.47925 680.97879 456.89693 681.50287 C 456.33403 682.00754 456.06307 682.6681 456.08248 683.48334 C 456.14071 686.39492 457.97408 688.68513 461.58443 690.35443 C 464.53483 691.71317 467.78621 692.39154 471.33834 692.39154 C 476.22979 692.39154 480.52937 691.19896 484.23678 688.81146 C 488.50709 686.05517 490.64303 682.36672 490.64303 677.74701 C 490.64303 674.50545 489.49792 671.7584 487.20748 669.50678 C 484.70352 667.04164 481.22866 665.64535 476.78365 665.31537 C 473.71679 665.10185 471.65006 664.86849 470.58248 664.61615 C 467.70972 663.95619 466.27193 662.82098 466.27193 661.2099 C 466.27193 659.07474 467.35967 657.2592 469.53365 655.76459 C 471.6494 654.3088 474.22046 653.56122 477.2485 653.5224 C 478.31608 653.50299 479.82112 653.7067 481.76217 654.13373 C 483.70322 654.54135 485.06192 654.74506 485.83834 654.74506 C 487.58529 654.74506 488.45944 653.89068 488.45944 652.18256 C 488.45944 650.88205 486.88714 649.81604 483.74264 648.98139 C 481.37455 648.34084 479.24851 648.02045 477.36568 648.02045 z M 268.72115 658.41498 C 266.74128 658.41498 265.7524 660.61816 265.7524 665.02435 C 265.7524 666.07252 265.83943 667.62504 266.01412 669.68256 C 266.20823 671.74007 266.30514 673.28271 266.30514 674.31146 C 266.30514 675.4761 266.19834 677.21255 265.98482 679.5224 C 265.77131 681.83225 265.66451 683.57066 265.66451 684.73529 C 265.66451 689.7238 266.76214 692.21771 268.95553 692.21771 C 269.75136 692.21771 270.43962 691.94676 271.02193 691.40326 C 271.62366 690.85977 271.92428 690.18933 271.92428 689.3935 C 271.92428 688.92764 271.82737 688.17018 271.63326 687.12201 C 271.45857 686.07384 271.37154 685.25901 271.37154 684.6767 C 271.37154 683.58971 271.47834 681.91062 271.69185 679.63959 C 271.90537 677.36856 272.01217 675.64992 272.01217 674.48529 C 272.69154 673.72828 273.18597 673.11716 273.49654 672.65131 L 276.93209 668.80951 C 278.32965 667.41195 279.70812 666.40135 281.06685 665.78021 C 281.64917 666.92544 281.9399 668.52739 281.9399 670.5849 C 281.9399 672.93358 282.17327 676.40843 282.63912 681.00873 C 283.12438 685.58961 283.36764 689.05459 283.36764 691.40326 C 283.36764 692.25732 283.62871 692.95547 284.15279 693.49896 C 284.69629 694.06187 285.3865 694.34271 286.22115 694.34271 C 287.0558 694.34271 287.73418 694.06187 288.25826 693.49896 C 288.80176 692.95547 289.07467 692.25732 289.07467 691.40326 C 289.07467 689.40398 288.88878 686.87052 288.51998 683.80365 L 287.64693 676.03021 C 287.53047 674.20562 287.48299 672.38019 287.5024 670.5556 C 288.08472 669.87624 289.30696 668.97438 291.17037 667.84857 C 293.13083 666.62571 294.46976 666.01264 295.18795 666.01264 C 295.96437 666.01264 296.68229 666.88678 297.34225 668.63373 C 297.8081 669.91482 298.13837 671.22604 298.33248 672.56537 L 299.32271 681.59076 C 299.6721 685.47287 300.02215 688.48099 300.37154 690.61615 C 300.64329 692.30487 301.5748 693.14935 303.16646 693.14935 C 304.00112 693.14935 304.70915 692.8784 305.29146 692.3349 C 305.87378 691.79141 306.13485 691.13085 306.07662 690.35443 C 305.22256 682.57081 304.52441 677.00945 303.98092 673.67084 C 303.41801 668.91526 303.02048 666.18798 302.78756 665.4892 C 301.60352 661.9953 299.39044 660.24896 296.14889 660.24896 C 294.24665 660.24896 292.55768 660.60695 291.08248 661.32514 C 289.60728 662.02391 288.33561 663.082 287.26803 664.49896 C 286.12281 661.47092 284.02642 659.95795 280.97896 659.95795 C 279.60082 659.95795 277.93161 660.80244 275.97115 662.49115 C 274.01069 664.16046 272.52542 666.03337 271.51607 668.11029 L 271.45943 665.0517 C 271.45943 664.64408 271.50691 664.05273 271.60396 663.27631 C 271.70102 662.49989 271.75045 661.92831 271.75045 661.55951 C 271.75045 660.78309 271.43006 660.06322 270.78951 659.40326 C 270.16837 658.7433 269.47816 658.41498 268.72115 658.41498 z M 315.04537 658.41498 C 313.0655 658.41498 312.07467 660.61816 312.07467 665.02435 C 312.07467 666.07252 312.16169 667.62504 312.33639 669.68256 C 312.53049 671.74007 312.62936 673.28271 312.62936 674.31146 C 312.62936 675.4761 312.52256 677.21255 312.30904 679.5224 C 312.09553 681.83225 311.98873 683.57066 311.98873 684.73529 C 311.98873 689.7238 313.0844 692.21771 315.27779 692.21771 C 316.07362 692.21771 316.76384 691.94676 317.34615 691.40326 C 317.94788 690.85977 318.2485 690.18933 318.2485 689.3935 C 318.2485 688.92764 318.15159 688.17018 317.95748 687.12201 C 317.78279 686.07384 317.69381 685.25901 317.69381 684.6767 C 317.69381 683.58971 317.8006 681.91062 318.01412 679.63959 C 318.22764 677.36856 318.33443 675.64992 318.33443 674.48529 C 319.0138 673.72828 319.51019 673.11716 319.82076 672.65131 L 323.25631 668.80951 C 324.65387 667.41195 326.03234 666.40135 327.39107 665.78021 C 327.97339 666.92544 328.26412 668.52739 328.26412 670.5849 C 328.26412 672.93358 328.49749 676.40843 328.96334 681.00873 C 329.4486 685.58961 329.6899 689.05459 329.6899 691.40326 C 329.6899 692.25732 329.95293 692.95547 330.47701 693.49896 C 331.02051 694.06187 331.70877 694.34271 332.54342 694.34271 C 333.37807 694.34271 334.0584 694.06187 334.58248 693.49896 C 335.12598 692.95547 335.39693 692.25732 335.39693 691.40326 C 335.39693 689.40398 335.213 686.87052 334.8442 683.80365 L 333.97115 676.03021 C 333.85469 674.20562 333.80526 672.38019 333.82467 670.5556 C 334.40698 669.87624 335.62923 668.97438 337.49264 667.84857 C 339.4531 666.62571 340.79398 666.01264 341.51217 666.01264 C 342.28859 666.01264 343.00651 666.88678 343.66646 668.63373 C 344.13232 669.91482 344.46259 671.22604 344.6567 672.56537 L 345.64498 681.59076 C 345.99437 685.47287 346.34442 688.48099 346.69381 690.61615 C 346.96556 692.30487 347.89707 693.14935 349.48873 693.14935 C 350.32338 693.14935 351.03141 692.8784 351.61373 692.3349 C 352.19605 691.79141 352.45907 691.13085 352.40084 690.35443 C 351.54678 682.57081 350.84863 677.00945 350.30514 673.67084 C 349.74223 668.91526 349.34275 666.18798 349.10982 665.4892 C 347.92578 661.9953 345.71466 660.24896 342.47311 660.24896 C 340.57087 660.24896 338.8819 660.60695 337.4067 661.32514 C 335.9315 662.02391 334.65982 663.082 333.59225 664.49896 C 332.44702 661.47092 330.35064 659.95795 327.30318 659.95795 C 325.92504 659.95795 324.25583 660.80244 322.29537 662.49115 C 320.33491 664.16046 318.84964 666.03337 317.84029 668.11029 L 317.7817 665.0517 C 317.7817 664.64408 317.83113 664.05273 317.92818 663.27631 C 318.02524 662.49989 318.07271 661.92831 318.07271 661.55951 C 318.07271 660.78309 317.75232 660.06322 317.11178 659.40326 C 316.49064 658.7433 315.80238 658.41498 315.04537 658.41498 z M 378.63326 658.93842 C 377.81802 658.93842 377.12976 659.20938 376.56686 659.75287 C 376.02336 660.27695 375.7524 660.95728 375.7524 661.79193 C 375.7524 662.41307 375.78011 663.33469 375.83834 664.55756 C 375.91598 665.78042 375.95553 666.70205 375.95553 667.32318 C 375.95553 669.32247 375.80919 672.09918 375.51803 675.65131 C 375.24628 679.18402 375.11178 681.9489 375.11178 683.94818 C 375.11178 684.5305 375.16914 685.40465 375.28561 686.56928 C 375.42148 687.73391 375.48873 688.60805 375.48873 689.19037 C 375.48873 690.06384 375.75176 690.77188 376.27584 691.31537 C 376.79992 691.85887 377.48818 692.12982 378.34225 692.12982 C 379.1769 692.12982 379.85722 691.85887 380.38131 691.31537 C 380.9248 690.77188 381.19576 690.06384 381.19576 689.19037 C 381.19576 688.60805 381.1384 687.73391 381.02193 686.56928 C 380.90547 685.40465 380.84615 684.5305 380.84615 683.94818 C 380.84615 683.03589 380.90547 682.09449 381.02193 681.12396 C 381.15781 679.97874 381.24483 679.02746 381.28365 678.27045 C 382.293 674.6795 383.69124 671.71092 385.47701 669.36225 C 387.45689 666.78065 389.5335 665.4892 391.70748 665.4892 C 393.26032 665.4892 394.03561 667.58559 394.03561 671.77826 C 394.03561 672.32176 393.99801 673.24338 393.92037 674.54389 C 393.86214 675.84439 393.83248 676.76602 393.83248 677.30951 C 393.83248 679.28938 393.96894 681.41543 394.24068 683.68646 L 395.05514 690.06342 C 395.26865 691.88801 396.21005 692.79975 397.87936 692.79975 C 398.71401 692.79975 399.40422 692.52879 399.94772 691.98529 C 400.51062 691.46121 400.79147 690.771 400.79147 689.91693 C 400.79147 688.32527 400.57787 686.25854 400.15084 683.71576 C 399.74322 681.15357 399.53951 679.06707 399.53951 677.456 L 399.56881 674.74896 L 399.56881 671.80756 C 399.49117 668.23602 399.03432 665.5384 398.19967 663.71381 C 396.97681 660.97692 394.81317 659.60834 391.70748 659.60834 C 388.27182 659.60834 384.92353 661.78187 381.66256 666.12982 L 381.57467 662.72357 C 381.39997 660.2002 380.41903 658.93842 378.63326 658.93842 z M 563.3735 658.93842 C 562.55826 658.93842 561.87 659.20938 561.30709 659.75287 C 560.7636 660.27695 560.49069 660.95728 560.49069 661.79193 C 560.49069 662.41307 560.52034 663.33469 560.57858 664.55756 C 560.65622 665.78042 560.69576 666.70205 560.69576 667.32318 C 560.69576 669.32247 560.54942 672.09918 560.25826 675.65131 C 559.98652 679.18402 559.85006 681.9489 559.85006 683.94818 C 559.85006 684.5305 559.90938 685.40465 560.02584 686.56928 C 560.16172 687.73391 560.22897 688.60805 560.22897 689.19037 C 560.22897 690.06384 560.49199 690.77188 561.01608 691.31537 C 561.54016 691.85887 562.22842 692.12982 563.08248 692.12982 C 563.91714 692.12982 564.59746 691.85887 565.12155 691.31537 C 565.66504 690.77188 565.936 690.06384 565.936 689.19037 C 565.936 688.60805 565.87863 687.73391 565.76217 686.56928 C 565.64571 685.40465 565.58639 684.5305 565.58639 683.94818 C 565.58639 683.03589 565.64571 682.09449 565.76217 681.12396 C 565.89804 679.97874 565.98507 679.02746 566.02389 678.27045 C 567.03324 674.6795 568.42953 671.71092 570.2153 669.36225 C 572.19517 666.78065 574.27374 665.4892 576.44772 665.4892 C 578.00056 665.4892 578.77584 667.58559 578.77584 671.77826 C 578.77584 672.32176 578.73825 673.24338 578.66061 674.54389 C 578.60238 675.84439 578.57272 676.76602 578.57272 677.30951 C 578.57272 679.28938 578.70917 681.41543 578.98092 683.68646 L 579.79537 690.06342 C 580.00889 691.88801 580.95029 692.79975 582.61959 692.79975 C 583.45425 692.79975 584.1425 692.52879 584.686 691.98529 C 585.2489 691.46121 585.5317 690.771 585.5317 689.91693 C 585.5317 688.32527 585.31811 686.25854 584.89108 683.71576 C 584.48346 681.15357 584.27975 679.06707 584.27975 677.456 L 584.30905 674.74896 L 584.30905 671.80756 C 584.2314 668.23602 583.77456 665.5384 582.9399 663.71381 C 581.71704 660.97692 579.5534 659.60834 576.44772 659.60834 C 573.01205 659.60834 569.66376 661.78187 566.4028 666.12982 L 566.3149 662.72357 C 566.14021 660.2002 565.15927 658.93842 563.3735 658.93842 z M 247.87545 660.53998 C 243.02282 660.53998 239.23745 662.5098 236.51998 666.45014 C 234.19072 669.78875 233.0832 673.65125 233.19967 678.03803 C 233.33554 682.56068 234.71401 686.16211 237.33443 688.84076 C 239.68311 691.24767 242.48753 692.45014 245.74849 692.45014 C 249.84412 692.45014 253.13504 690.72357 255.61959 687.2685 C 257.81298 684.22104 258.93831 680.54248 258.99654 676.23334 C 259.05477 672.19595 258.28938 668.74086 256.69771 665.8681 C 254.69843 662.31598 251.75755 660.53998 247.87545 660.53998 z M 510.61569 660.53998 C 505.76305 660.53998 501.97769 662.5098 499.26022 666.45014 C 496.93095 669.78875 495.82539 673.65125 495.94186 678.03803 C 496.07773 682.56068 497.4562 686.16211 500.07662 688.84076 C 502.4253 691.24767 505.22972 692.45014 508.49069 692.45014 C 512.58631 692.45014 515.87723 690.72357 518.36178 687.2685 C 520.55517 684.22104 521.6805 680.54248 521.73873 676.23334 C 521.79696 672.19595 521.02961 668.74086 519.43795 665.8681 C 517.43867 662.31598 514.49779 660.53998 510.61569 660.53998 z M 541.97311 660.53998 C 537.12048 660.53998 533.33707 662.5098 530.61959 666.45014 C 528.29033 669.78875 527.18282 673.65125 527.29928 678.03803 C 527.43515 682.56068 528.81362 686.16211 531.43404 688.84076 C 533.78272 691.24767 536.58714 692.45014 539.84811 692.45014 C 543.94373 692.45014 547.23465 690.72357 549.7192 687.2685 C 551.91259 684.22104 553.03792 680.54248 553.09615 676.23334 C 553.15439 672.19595 552.38704 668.74086 550.79537 665.8681 C 548.79609 662.31598 545.85521 660.53998 541.97311 660.53998 z M 363.436 660.91889 C 362.60134 660.91889 361.91113 661.18984 361.36764 661.73334 C 360.84355 662.27683 360.58248 662.98487 360.58248 663.85834 C 360.58248 665.68293 360.48557 667.96325 360.29146 670.70014 C 360.09736 673.41761 360.00045 675.69 360.00045 677.51459 C 360.00045 678.67922 360.02816 680.42556 360.08639 682.75482 C 360.16403 685.06468 360.20357 686.80308 360.20357 687.96771 C 360.20357 688.82178 360.4666 689.51992 360.99068 690.06342 C 361.53418 690.60691 362.22244 690.87787 363.05709 690.87787 C 363.91115 690.87787 364.59941 690.60691 365.1235 690.06342 C 365.64758 689.51992 365.91061 688.82178 365.91061 687.96771 C 365.91061 686.80308 365.87106 685.06468 365.79342 682.75482 C 365.73519 680.42556 365.70748 678.67922 365.70748 677.51459 C 365.70748 675.69 365.80439 673.41761 365.9985 670.70014 C 366.1926 667.96325 366.28951 665.68293 366.28951 663.85834 C 366.28951 662.98487 366.0166 662.27683 365.47311 661.73334 C 364.94902 661.18984 364.27065 660.91889 363.436 660.91889 z M 421.66647 660.91889 C 416.30916 660.91889 412.07879 662.56831 408.97311 665.8681 C 405.96447 669.07084 404.45943 673.29328 404.45943 678.53412 C 404.45943 682.35799 405.55706 685.47292 407.75045 687.87982 C 409.96325 690.26732 412.82504 691.4599 416.33834 691.4599 C 418.20175 691.4599 419.85313 690.97535 421.28951 690.00482 C 422.7453 689.0343 423.9972 687.57869 425.04537 685.63764 C 424.98714 690.5485 424.49075 694.18752 423.55904 696.5556 C 422.14208 700.10773 419.57102 701.91339 415.8442 701.97162 C 413.86433 702.01044 412.05867 701.85421 410.42818 701.50482 C 408.7977 701.17484 407.63282 701.01068 406.93404 701.01068 C 405.24533 701.01068 404.40084 701.87494 404.40084 703.60248 C 404.40084 705.13591 405.62504 706.14456 408.07076 706.62982 C 409.81771 706.97921 411.98135 707.15326 414.56295 707.15326 C 418.96914 707.15326 422.3372 706.25141 424.66647 704.44623 C 426.58811 702.95162 427.98635 700.63175 428.85983 697.48725 C 429.53919 695.02211 429.93672 691.84982 430.05318 687.96771 L 430.72311 678.18451 C 430.80075 677.21398 431.06182 675.38855 431.50826 672.7099 C 431.91588 670.40005 432.11959 668.5568 432.11959 667.17865 C 432.11959 664.92703 431.08128 663.77204 429.00436 663.71381 C 428.36381 662.7821 427.4323 662.082 426.20943 661.61615 C 424.98657 661.1503 423.47164 660.91889 421.66647 660.91889 z M 421.37545 665.57709 C 422.26833 665.57709 423.13259 665.72148 423.96725 666.01264 C 424.8019 666.30379 425.60684 666.75075 426.38326 667.35248 C 425.91741 671.83631 425.48229 675.12724 425.07467 677.22357 C 424.84174 679.22286 423.89046 681.24016 422.22115 683.27826 C 420.37715 685.49106 418.47459 686.59857 416.51412 686.59857 C 414.37896 686.59857 412.77701 685.89054 411.70943 684.47357 C 410.64186 683.05661 410.10787 680.94044 410.10787 678.12592 C 410.10787 674.5932 411.01168 671.68198 412.81686 669.39154 C 414.83555 666.84876 417.68745 665.57709 421.37545 665.57709 z M 247.49654 666.45014 C 251.82509 666.46955 253.85423 670.23514 253.58248 677.74701 C 253.48543 680.52272 252.61128 682.7259 250.96139 684.35639 C 249.5056 685.83159 247.76719 686.56928 245.74849 686.56928 C 244.02096 686.56928 242.51787 685.91861 241.23678 684.6181 C 239.70334 683.04585 238.93599 680.85255 238.93599 678.03803 C 238.93599 675.2235 239.56689 672.7197 240.82857 670.52631 C 242.42024 667.78942 244.64319 666.43073 247.49654 666.45014 z M 510.23678 666.45014 C 514.56533 666.46955 516.59446 670.23514 516.32272 677.74701 C 516.22566 680.52272 515.35152 682.7259 513.70162 684.35639 C 512.24583 685.83159 510.50938 686.56928 508.49069 686.56928 C 506.76315 686.56928 505.25811 685.91861 503.97701 684.6181 C 502.44358 683.04585 501.67819 680.85255 501.67819 678.03803 C 501.67819 675.2235 502.30908 672.7197 503.57076 670.52631 C 505.16243 667.78942 507.38343 666.43073 510.23678 666.45014 z M 541.59615 666.45014 C 545.9247 666.46955 547.95189 670.23514 547.68014 677.74701 C 547.58309 680.52272 546.71089 682.7259 545.061 684.35639 C 543.60521 685.83159 541.8668 686.56928 539.84811 686.56928 C 538.12057 686.56928 536.61748 685.91861 535.33639 684.6181 C 533.80296 683.04585 533.03561 680.85255 533.03561 678.03803 C 533.03561 675.2235 533.6665 672.7197 534.92819 670.52631 C 536.51985 667.78942 538.74281 666.43073 541.59615 666.45014 z " /></g></svg>
