<?xml version="1.0" encoding="UTF-8" standalone="no"?>
<!-- Created with Inkscape (http://www.inkscape.org/) -->

<svg
   width="106.77326mm"
   height="124.45465mm"
   viewBox="0 0 403.5525 470.37979"
   version="1.1"
   id="svg1"
   xml:space="preserve"
   xmlns:inkscape="http://www.inkscape.org/namespaces/inkscape"
   xmlns:sodipodi="http://sodipodi.sourceforge.net/DTD/sodipodi-0.dtd"
   xmlns="http://www.w3.org/2000/svg"
   xmlns:svg="http://www.w3.org/2000/svg"><sodipodi:namedview
     id="namedview1"
     pagecolor="#ffffff"
     bordercolor="#000000"
     borderopacity="0.25"
     inkscape:showpageshadow="2"
     inkscape:pageopacity="0.0"
     inkscape:pagecheckerboard="0"
     inkscape:deskcolor="#d1d1d1"
     inkscape:document-units="mm" /><defs
     id="defs1" /><g
     inkscape:label="Layer 1"
     inkscape:groupmode="layer"
     id="layer1"
     transform="translate(-189.72701,-236.77435)"><path
       style="fill:#a3004c;fill-opacity:1"
       d="m 366.50945,617.54219 c -11.66384,-1.11401 -24.10596,-3.48067 -36.26427,-6.89796 -76.18485,-21.41297 -132.58913,-90.83878 -139.89501,-172.19128 -2.27631,-25.34716 1.73846,-53.01378 11.14595,-76.80909 17.49131,-44.24255 55.38548,-84.65292 99.46156,-106.06588 23.19996,-11.27097 40.67092,-15.51925 69.89758,-16.99646 10.53481,-0.53247 24.13424,-1.24998 30.22097,-1.59447 27.43894,-1.55297 60.59314,5.47311 87.93322,18.63493 49.75584,23.95302 85.52552,67.01542 98.58496,118.68443 21.21686,83.9435 -18.30356,173.18175 -95.99958,216.76981 -37.52016,21.0491 -82.39328,30.5435 -125.08538,26.46597 z m 54.56587,-14.78372 c 83.67656,-15.80417 143.55218,-74.74939 157.07267,-154.63191 2.0701,-12.23067 2.34682,-41.38197 0.50311,-53 -7.81434,-49.24153 -32.73473,-88.72209 -72.99502,-115.64359 -35.42099,-23.68553 -81.3922,-34.2615 -123.13835,-28.32874 -10.10433,1.43597 -10.58955,1.41869 -13.14146,-0.46802 l -2.64975,-1.95904 -10.85854,2.87473 c -74.63213,19.75841 -125.13516,62.42348 -144.86578,122.38295 -6.49016,19.72298 -7.9141,28.72065 -7.93522,50.14171 -0.0191,19.3793 0.85422,26.36466 5.53519,44.27351 10.66973,40.82114 37.3557,79.56431 71.98734,104.51249 11.12325,8.01305 33.70907,19.47948 46.52107,23.61796 9.83459,3.17672 25.00621,6.63388 35.39887,8.06634 11.60233,1.59919 46.09849,0.51636 58.56587,-1.83839 z m -45.56587,-54.80191 c -47.17965,-2.57374 -80.41562,-18.75562 -93.89575,-45.71583 -4.2966,-8.59318 -5.86298,-14.99503 -4.1685,-17.03675 2.64536,-3.18747 4.82036,-1.75824 10.43682,6.85815 14.83304,22.7559 35.56153,35.38874 67.62743,41.21509 11.84418,2.15208 46.06842,2.4136 59.5,0.45467 31.41678,-4.58199 52.7313,-14.23958 66.9867,-30.35159 2.55659,-2.88956 6.93814,-9.90787 9.73678,-15.59624 5.64409,-11.4719 7.6724,-13.27084 12.41319,-11.00943 4.30392,2.05302 4.29981,6.34753 -0.0148,15.43281 -13.26226,27.92655 -38.18858,44.85988 -77.0841,52.36594 -9.28866,1.79252 -38.56159,4.36145 -44.0378,3.86465 -1.1,-0.0998 -4.475,-0.31645 -7.5,-0.48147 z m 58.33794,-141.32863 c -2.76927,-1.11672 -3.06911,-2.20811 -4.32964,-15.75974 -1.04321,-11.21534 0.0276,-31.77657 1.73461,-33.30565 0.4164,-0.373 3.05983,-0.93291 5.8743,-1.24424 6.94876,-0.76866 8.91807,0.75275 10.43548,8.06205 2.81195,13.54511 -1.24384,35.52008 -7.56643,40.99621 -2.85759,2.47501 -3.02791,2.50968 -6.14832,1.25137 z m -88.68295,-4.83011 c -1.41486,-1.5634 -1.65499,-4.52183 -1.65499,-20.38922 0,-20.93838 0.4306,-22.35162 7.13742,-23.42503 4.89777,-0.78388 7.32919,1.75857 8.89725,9.30351 2.11243,10.16431 -0.16635,25.2327 -5.00411,33.08948 -2.32629,3.77801 -6.64963,4.43339 -9.37557,1.42126 z"
       id="path1" /><text
       xml:space="preserve"
       style="font-style:normal;font-variant:normal;font-weight:normal;font-stretch:normal;font-size:59.6292px;font-family:'Comic Sans MS';-inkscape-font-specification:'Comic Sans MS, Normal';font-variant-ligatures:normal;font-variant-caps:normal;font-variant-numeric:normal;font-variant-east-asian:normal;text-align:center;letter-spacing:0px;word-spacing:0px;text-anchor:middle;fill:#a3004c;stroke-width:5;stroke-linecap:round;stroke-linejoin:round"
       x="391.15387"
       y="690.73279"
       id="text1"><tspan
         sodipodi:role="line"
         x="391.15387"
         y="690.73279"
         id="tspan2"
         style="font-style:normal;font-variant:normal;font-weight:normal;font-stretch:normal;font-size:59.6292px;font-family:'Comic Sans MS';-inkscape-font-specification:'Comic Sans MS, Normal';font-variant-ligatures:normal;font-variant-caps:normal;font-variant-numeric:normal;font-variant-east-asian:normal;stroke-width:5">Comming Soon</tspan></text></g></svg>
