<?xml version="1.0" encoding="UTF-8" standalone="no"?>
<!-- Created with Inkscape (http://www.inkscape.org/) -->

<svg
   width="153.09291mm"
   height="43.41053mm"
   viewBox="0 0 153.09291 43.41053"
   version="1.1"
   id="svg1"
   xml:space="preserve"
   xmlns:inkscape="http://www.inkscape.org/namespaces/inkscape"
   xmlns:sodipodi="http://sodipodi.sourceforge.net/DTD/sodipodi-0.dtd"
   xmlns:xlink="http://www.w3.org/1999/xlink"
   xmlns="http://www.w3.org/2000/svg"
   xmlns:svg="http://www.w3.org/2000/svg"><sodipodi:namedview
     id="namedview1"
     pagecolor="#ffffff"
     bordercolor="#000000"
     borderopacity="0.25"
     inkscape:showpageshadow="2"
     inkscape:pageopacity="0.0"
     inkscape:pagecheckerboard="0"
     inkscape:deskcolor="#d1d1d1"
     inkscape:document-units="mm" /><defs
     id="defs1"><linearGradient
       id="linearGradient1"
       inkscape:collect="always"><stop
         style="stop-color:#f9ce34;stop-opacity:1;"
         offset="0"
         id="stop1" /><stop
         style="stop-color:#ee2a7b;stop-opacity:1;"
         offset="0.5"
         id="stop3" /><stop
         style="stop-color:#6228d7;stop-opacity:1;"
         offset="1"
         id="stop2" /></linearGradient><linearGradient
       inkscape:collect="always"
       xlink:href="#linearGradient1"
       id="linearGradient2"
       x1="28.385468"
       y1="157.0041"
       x2="181.47838"
       y2="157.0041"
       gradientUnits="userSpaceOnUse"
       gradientTransform="translate(28.385466,135.29884)" /></defs><g
     inkscape:label="Layer 1"
     inkscape:groupmode="layer"
     id="layer1"
     transform="translate(-28.385466,-135.29884)"><path
       style="fill:url(#linearGradient2);stroke-width:1"
       d="m 112.03645,178.63394 c -1.84566,-0.30672 -3.25992,-1.25757 -3.87226,-2.60347 -0.52064,-1.14433 -0.50672,-2.72797 0.0351,-3.99154 0.71963,-1.67832 2.07676,-3.21947 5.99894,-6.81234 l 1.81276,-1.66057 -0.0278,-0.90602 c -0.0153,-0.49831 -0.0408,-0.92005 -0.0568,-0.93721 -0.0159,-0.0172 -0.0585,0.0216 -0.0947,0.0862 -0.19103,0.34134 -0.91982,1.13847 -1.38556,1.51548 -0.59532,0.48191 -1.58737,1.00158 -2.21266,1.15909 -2.31517,0.58316 -4.28499,-0.27203 -5.57659,-2.42106 l -0.31032,-0.51633 -0.22531,0.45536 c -0.30598,0.61837 -0.92823,1.42864 -1.36799,1.78135 -0.76424,0.61297 -1.61516,0.88741 -2.61523,0.84347 -1.70707,-0.075 -3.138002,-1.2396 -3.673896,-2.99011 -0.07324,-0.23924 -0.133163,-0.51763 -0.133163,-0.61865 0,-0.25786 -0.07954,-0.22863 -0.233991,0.086 -0.2412,0.49136 -0.917902,1.37256 -1.429014,1.86087 -1.173831,1.12148 -2.517262,1.69006 -3.984139,1.68623 -2.321981,-0.006 -4.073694,-1.53084 -4.951584,-4.31009 -0.113264,-0.35858 -0.219731,-0.63817 -0.236594,-0.6213 -0.01686,0.0169 -0.124452,0.25979 -0.239089,0.53984 -0.873992,2.13512 -2.503854,3.94087 -3.900038,4.32091 -0.388249,0.10569 -1.242772,0.0876 -1.721184,-0.0363 -0.714389,-0.18511 -1.2417,-0.50191 -1.832075,-1.10066 -0.591401,-0.59979 -0.833938,-0.97012 -1.216491,-1.85746 -0.397916,-0.92298 -0.779592,-2.58656 -0.893059,-3.89251 -0.0138,-0.15886 -0.08623,-0.0469 -0.437784,0.67681 -1.835853,3.77927 -4.070133,5.72908 -7.15225,6.24163 -1.338774,0.22263 -3.563882,0.0337 -4.856938,-0.41246 -0.973399,-0.33584 -1.744464,-0.87755 -1.850508,-1.30006 -0.120182,-0.47884 0.325514,-1.5279 0.909101,-2.1398 0.4266,-0.44729 0.617826,-0.55981 0.951431,-0.55981 0.264937,0 0.462428,0.10923 1.52139,0.84141 1.272345,0.87972 2.251185,0.97437 3.025716,0.29261 0.762719,-0.67138 1.010943,-2.09108 0.575466,-3.29135 -0.413445,-1.13956 -0.87138,-1.70991 -2.835087,-3.53107 -1.109425,-1.02889 -1.12449,-1.04001 -1.215069,-0.89684 -0.05044,0.0797 -0.926975,1.54406 -1.947846,3.25406 -2.557024,4.28313 -3.05667,5.00217 -4.324149,6.22286 -0.746711,0.71915 -1.417541,1.16906 -2.093696,1.40421 -0.398283,0.1385 -0.537534,0.15581 -1.063565,0.13214 -0.462739,-0.0208 -0.677133,-0.0618 -0.910403,-0.17421 -1.054545,-0.50799 -1.624727,-1.95117 -1.818503,-4.6028 -0.09795,-1.34028 -0.07935,-2.68472 0.09347,-6.75754 0.189459,-4.46508 0.189048,-4.43378 0.0587,-4.48379 -0.199401,-0.0765 -1.028598,0.88821 -1.863271,2.16783 -0.555537,0.85168 -1.571208,2.8686 -2.028977,4.02914 -1.008758,2.55742 -1.994736,6.12904 -2.289152,8.29225 -0.152786,1.1226 -0.18688,1.24169 -0.394402,1.37766 -0.409897,0.26858 -2.040248,0.2543 -2.583055,-0.0226 -0.692773,-0.35342 -0.988608,-1.09623 -1.083407,-2.72028 -0.08711,-1.4924 0.02046,-15.92965 0.12008,-16.11579 0.116128,-0.21699 0.324064,-0.29 0.799354,-0.28066 0.91275,0.0179 2.553557,0.59535 2.747891,0.967 0.06719,0.1285 0.07498,1.01428 0.04101,4.66365 -0.02307,2.47777 -0.02473,4.48841 -0.0037,4.46809 0.02103,-0.0203 0.321148,-0.81979 0.666942,-1.77663 0.345797,-0.95683 0.715294,-1.95737 0.821105,-2.22343 1.278728,-3.21523 2.845638,-5.29876 4.430988,-5.89192 0.91712,-0.34314 1.547368,-0.29012 2.590063,0.21786 1.405651,0.68482 2.018115,1.28169 2.15172,2.09693 0.02288,0.13959 -0.0038,1.26744 -0.05923,2.50632 -0.143109,3.19714 -0.19483,7.7025 -0.100001,8.71109 0.122443,1.3023 0.31667,1.75833 0.748886,1.75833 0.653477,0 1.465475,-0.99627 3.128745,-3.83879 0.851997,-1.45605 1.797375,-3.15042 2.381957,-4.2691 0.26451,-0.50617 0.355958,-0.73989 0.31222,-0.79794 -0.762108,-1.01156 -1.0133,-1.63904 -1.006941,-2.51536 0.01797,-2.4756 2.140657,-4.5796 4.46128,-4.422 0.696148,0.0473 1.103383,0.19016 1.406814,0.49359 0.265367,0.26537 0.438607,0.72735 0.438607,1.16966 0,0.87217 -0.716055,2.46463 -1.687232,3.75229 -0.223659,0.29654 -0.406653,0.55068 -0.406653,0.56475 0,0.0141 0.578198,0.45951 1.284884,0.98987 2.904901,2.18007 3.387377,2.59223 4.036517,3.44827 0.398213,0.52514 0.782908,1.29735 0.932338,1.8715 0.117745,0.45242 0.153865,1.47135 0.07198,2.03044 l -0.05111,0.34898 0.390099,-0.38071 c 1.083795,-1.0577 2.036965,-2.62797 2.522754,-4.15604 0.339497,-1.06791 0.337031,-1.02101 0.317069,-6.02785 l -0.01859,-4.66365 -2.062159,-0.048 c -1.134188,-0.0264 -2.154886,-0.0634 -2.268218,-0.0822 -0.324052,-0.0537 -0.417726,-0.30147 -0.380576,-1.00667 0.03665,-0.69576 0.226379,-1.32516 0.512422,-1.69992 l 0.20787,-0.27234 h 0.821486 c 0.451817,0 1.410761,0.024 2.130985,0.0534 l 1.309499,0.0534 0.04103,-1.19556 c 0.141951,-4.13628 0.190878,-4.55206 0.563451,-4.78811 0.177556,-0.11249 0.274153,-0.12434 0.773937,-0.0949 1.05749,0.0623 2.788981,0.62192 3.112099,1.00593 0.156041,0.18544 0.161923,0.21985 0.126505,0.74005 -0.05477,0.80442 -0.161227,3.45133 -0.161227,4.00867 v 0.48269 l 1.443511,0.0756 c 3.733298,0.19542 4.139515,0.23373 4.312513,0.40673 0.233991,0.23399 0.147744,1.20512 -0.161752,1.82133 -0.308015,0.61325 -0.135952,0.57872 -3.085244,0.61914 -1.788974,0.0245 -2.590778,0.0568 -2.606119,0.10497 -0.103453,0.32469 -0.37694,10.87707 -0.322474,12.44249 0.07322,2.10443 0.387038,3.49584 0.95698,4.24307 0.483296,0.63363 1.199605,0.52098 2.07775,-0.32677 1.244909,-1.20181 2.268401,-3.52006 2.271868,-5.14587 0.0028,-1.3076 0.286513,-3.4479 0.638569,-4.81709 0.695122,-2.70341 2.416935,-5.06594 4.174436,-5.72782 0.895693,-0.33732 1.986315,-0.39388 2.894996,-0.15015 0.837338,0.2246 1.831357,0.91945 2.402787,1.67962 l 0.293883,0.39095 9.9e-5,-0.43458 c 1.29e-4,-0.5692 0.130333,-0.83253 0.505091,-1.02151 0.334416,-0.16863 0.610683,-0.17763 1.372829,-0.0447 0.676062,0.1179 1.345852,0.34269 1.680082,0.56387 0.47742,0.31595 0.46052,0.11192 0.34108,4.11742 -0.12507,4.1944 -0.0993,7.89182 0.0631,9.05301 0.18887,1.35024 0.45514,2.07571 0.914,2.49026 0.43792,0.39564 0.93125,0.46239 1.46212,0.19785 0.56211,-0.28011 1.14671,-1.14848 1.4893,-2.21223 0.21053,-0.6537 0.2137,-0.69991 0.10229,-1.4911 -0.12105,-0.8596 -0.12662,-3.66997 -0.009,-4.7271 0.40988,-3.69548 1.9995,-6.90673 4.0053,-8.09124 1.39464,-0.8236 3.24547,-0.83591 4.57147,-0.0304 0.42555,0.2585 1.23717,0.99465 1.4643,1.32814 0.0845,0.124 0.17496,0.22564 0.20114,0.22588 0.0262,2.4e-4 0.0476,-0.21657 0.0476,-0.48179 0,-0.46126 0.009,-0.49137 0.21005,-0.69228 0.30773,-0.30774 0.64175,-0.37932 1.36144,-0.29177 0.62877,0.0765 1.62978,0.36928 1.96246,0.57402 0.44102,0.27141 0.41851,-0.0602 0.33709,4.96576 -0.0403,2.48826 -0.064,5.43656 -0.0528,6.55178 l 0.0205,2.02767 0.40277,-0.58813 c 1.78022,-2.59945 3.39721,-6.05325 4.0674,-8.68775 l 0.1336,-0.52517 -0.38137,-0.35308 c -0.55592,-0.51468 -0.78347,-1.00659 -0.81538,-1.76268 -0.0429,-1.01513 0.26436,-1.89193 0.89742,-2.5613 0.51889,-0.54865 1.08607,-0.77423 1.95004,-0.77559 0.85478,-0.001 1.42658,0.32042 1.71336,0.96412 0.12362,0.27749 0.14853,0.43515 0.14327,0.90694 -0.004,0.31408 -0.0366,0.69877 -0.0736,0.85487 -0.037,0.15609 -0.0595,0.29152 -0.0501,0.30095 0.0304,0.0304 1.8787,-0.28724 3.0173,-0.51859 1.7289,-0.35131 2.48263,-0.29448 3.08106,0.23228 0.15333,0.13497 0.35888,0.40856 0.45677,0.60798 0.2674,0.54474 0.23972,1.03427 -0.15865,2.80545 -0.68673,3.05332 -0.84899,4.22597 -0.8516,6.15476 -0.003,2.44351 0.38458,4.07027 1.17611,4.93236 0.46041,0.50145 0.92445,0.6275 1.53911,0.41807 0.6284,-0.21413 1.2949,-1.13929 1.58029,-2.1936 0.11325,-0.41836 0.11282,-0.44252 -0.0246,-1.39472 -0.32469,-2.24912 -0.21292,-4.9763 0.29197,-7.12373 0.47987,-2.04102 1.39814,-3.82194 2.58756,-5.01839 0.64867,-0.65251 1.20787,-1.0127 1.96291,-1.26433 1.21845,-0.40608 2.7364,-0.2248 3.74977,0.4478 0.47277,0.31379 1.09558,0.89234 1.33842,1.2433 l 0.18469,0.26693 0.0453,-0.49432 c 0.0542,-0.59169 0.15489,-0.76577 0.54215,-0.93708 0.25024,-0.11069 0.36601,-0.12273 0.8236,-0.0856 1.03098,0.0837 2.08505,0.44841 2.42949,0.8407 0.2315,0.26367 0.22772,0.052 0.0864,4.83805 -0.24417,8.27075 0.0698,10.61089 1.4656,10.92326 0.18427,0.0412 0.43761,0.0557 0.56296,0.0322 0.87055,-0.16331 1.98121,-1.97875 2.48797,-4.06673 0.14909,-0.61425 0.15414,-0.71351 0.15825,-3.1091 0.002,-1.36102 0.0262,-3.9879 0.053,-5.8375 0.0537,-3.70613 0.0498,-3.6728 0.45102,-3.83898 0.27849,-0.11536 1.00475,-0.045 1.95949,0.18994 0.99607,0.24506 1.18702,0.33627 1.34265,0.64132 0.11804,0.23139 0.1239,0.40108 0.12737,3.6873 l 0.004,3.44474 0.84219,-2.47459 c 0.94147,-2.76635 1.16343,-3.35732 1.59128,-4.23682 0.34858,-0.71653 0.70278,-1.14739 1.03471,-1.25863 0.56277,-0.1886 1.63928,-0.009 2.47572,0.41316 0.8543,0.43112 1.27572,0.97617 1.40297,1.81456 0.0344,0.22684 0.0784,1.29758 0.0977,2.37942 0.037,2.07475 0.10055,3.3059 0.26189,5.07455 0.13047,1.43022 0.15649,1.45389 0.34346,0.31244 0.21988,-1.34243 0.53679,-2.64262 1.08208,-4.43956 0.63482,-2.09196 1.58635,-4.58359 1.92689,-5.04572 0.446,-0.60524 1.13895,-0.71911 2.24194,-0.36844 1.36393,0.43363 2.33614,1.05599 2.59178,1.65913 0.13097,0.30901 0.13364,0.57935 0.0302,3.0614 -0.13089,3.14194 -0.0683,7.46829 0.12626,8.72452 0.23884,1.54227 0.77312,2.69355 1.4006,3.01804 0.28904,0.14946 0.76129,0.1168 1.03934,-0.0719 0.57847,-0.39256 0.89785,-1.07016 1.34052,-2.84405 0.33981,-1.36171 0.45683,-1.56147 0.91468,-1.56147 0.66578,0 0.82547,0.84479 0.48043,2.54174 -0.61638,3.03153 -1.93735,4.56711 -3.93605,4.57555 -2.14198,0.009 -3.84041,-1.58237 -4.51128,-4.22699 -0.43653,-1.72086 -0.64081,-4.8059 -0.56216,-8.48986 0.0296,-1.387 0.0223,-2.01457 -0.0234,-2.01457 -0.20705,0 -1.58685,3.68614 -2.00696,5.36162 -0.55935,2.23074 -0.99175,5.10846 -0.99175,6.60025 0,0.72599 -0.0798,0.92043 -0.46133,1.12429 -0.23754,0.12692 -0.35943,0.14339 -1.06149,0.14339 -0.72227,0 -0.82467,-0.0148 -1.14594,-0.16547 -0.72149,-0.33838 -1.25673,-1.0801 -1.51525,-2.0998 -0.42309,-1.66886 -0.83972,-5.64759 -0.92551,-8.83867 -0.0457,-1.69918 -0.0659,-1.8718 -0.21965,-1.8718 -0.17589,0 -0.35146,0.25865 -0.79678,1.17384 -0.65876,1.35384 -1.14004,2.75064 -1.63969,4.75883 -0.38466,1.54602 -0.50797,2.6782 -0.60816,5.58369 -0.0705,2.04395 -0.0892,2.24591 -0.23347,2.52499 -0.12779,0.24711 -0.39255,0.34326 -1.16289,0.42231 -1.05577,0.10834 -2.07097,-0.0647 -2.76478,-0.47132 -0.14702,-0.0862 -0.28605,-0.2055 -0.30897,-0.2652 -0.0381,-0.0993 -0.10173,-0.67608 -0.20117,-1.82344 l -0.0379,-0.43753 -0.3588,0.67331 c -0.80886,1.51786 -1.64348,2.18288 -2.91918,2.32594 -1.89203,0.21219 -3.71083,-1.00904 -4.34484,-2.91733 -0.087,-0.26174 -0.18211,-0.57211 -0.21145,-0.68973 l -0.0533,-0.21384 -0.37426,0.60499 c -1.28058,2.07003 -3.15386,3.22826 -5.21629,3.2252 -0.71275,-9.6e-4 -0.79757,-0.0147 -1.49976,-0.24064 -1.04821,-0.33733 -2.18344,-1.33227 -2.72083,-2.38459 -0.0668,-0.13087 -0.14353,-0.23794 -0.17044,-0.23794 -0.0269,0 -0.12272,0.1499 -0.21289,0.33312 -0.54834,1.1142 -1.74614,2.14646 -2.81321,2.42439 -2.04714,0.53322 -4.42175,-0.97031 -5.35718,-3.39202 -0.93381,-2.41754 -0.9215,-6.13293 0.0345,-10.39862 0.13598,-0.60679 0.14816,-0.73604 0.0761,-0.80808 -0.0699,-0.0699 -0.35962,-0.0771 -1.56426,-0.0391 l -1.47851,0.0467 -0.36808,0.98349 c -1.18864,3.17603 -3.02152,6.60159 -4.93973,9.23213 -0.48038,0.65876 -1.51916,1.98105 -1.83595,2.33703 l -0.21639,0.24314 0.0446,2.99286 c 0.0474,3.18582 0.009,4.10487 -0.23401,5.6578 -0.35176,2.24386 -0.92289,3.81809 -1.77176,4.8836 -1.45742,1.82938 -3.54728,2.70022 -5.64387,2.3518 z m 1.74316,-1.9271 c 0.97529,-0.45639 1.53716,-1.37453 1.9287,-3.1516 0.32572,-1.47837 0.45246,-2.98656 0.45246,-5.38422 v -1.78144 l -0.41673,0.4106 c -1.71764,1.69239 -3.34455,3.65781 -4.08005,4.92897 -1.42168,2.45709 -1.23297,4.57952 0.45648,5.13416 0.43455,0.14266 1.16765,0.0735 1.65914,-0.15647 z M 94.773801,161.9096 c 1.316346,-0.7016 2.252247,-2.66492 2.645155,-5.54896 0.162527,-1.19299 0.163041,-3.91474 9.11e-4,-4.88573 -0.28824,-1.72638 -0.860678,-2.78728 -1.731383,-3.20878 -0.453616,-0.21959 -1.201071,-0.24392 -1.703871,-0.0555 -0.535827,0.20085 -1.238576,0.91164 -1.605059,1.62343 -1.168196,2.26888 -1.494098,7.05808 -0.673986,9.9044 0.338791,1.17583 0.972243,2.08759 1.612809,2.32141 0.440608,0.16083 0.97524,0.10561 1.455413,-0.15032 z m 18.119239,0.0507 c 0.84752,-0.43118 1.52016,-1.33333 1.99214,-2.67189 0.66094,-1.87448 0.96586,-4.39535 0.82616,-6.83004 -0.14823,-2.58315 -0.73346,-3.89606 -1.91103,-4.28718 -0.4518,-0.15007 -1.11743,-0.10035 -1.5972,0.1193 -0.70848,0.32435 -1.43454,1.22887 -1.87586,2.33693 -0.95258,2.39168 -1.16493,6.38311 -0.47883,9.00026 0.31962,1.21921 0.97089,2.19399 1.62697,2.43514 0.39849,0.14648 1.016,0.10182 1.41765,-0.10252 z m 31.88415,-0.0152 c 0.43678,-0.22103 1.09739,-0.8901 1.41293,-1.43103 0.52189,-0.89467 0.997,-2.40975 1.23282,-3.93139 0.14315,-0.92371 0.16289,-4.09683 0.0308,-4.94918 -0.29554,-1.90688 -0.93266,-3.06352 -1.88536,-3.42275 -0.3108,-0.1172 -0.47101,-0.13814 -0.89321,-0.11678 -0.68905,0.0349 -1.08598,0.23011 -1.6209,0.79731 -1.02549,1.0874 -1.52775,2.82824 -1.70976,5.92612 -0.11432,1.94563 0.0495,3.87357 0.43301,5.09646 0.36717,1.17075 0.92188,1.90964 1.6355,2.17851 0.32332,0.12182 0.97049,0.052 1.36419,-0.14727 z m -109.639402,6.15879 c -0.135932,-0.16379 -0.09682,-0.6081 0.113286,-1.287 0.622788,-2.01237 0.754089,-3.02092 0.807825,-6.20507 0.05631,-3.33647 0.136135,-22.06923 0.09535,-22.37487 -0.05828,-0.43673 -0.213081,-0.40653 -0.776524,0.15145 -2.500256,2.47604 -3.927292,7.20305 -3.220929,10.66923 0.169166,0.83012 0.413506,1.44083 0.915273,2.28768 0.451728,0.7624 0.512773,1.0381 0.290553,1.31224 -0.366411,0.45203 -1.904522,-0.17903 -3.040094,-1.24729 -0.964074,-0.90693 -1.580398,-2.02174 -1.858552,-3.36175 -0.12746,-0.61403 -0.0956,-1.92203 0.06568,-2.69667 0.617348,-2.96515 2.444828,-6.03604 4.779391,-8.03127 1.255952,-1.0734 2.651611,-1.88665 3.425491,-1.99604 1.330005,-0.188 3.409287,0.69061 3.584544,1.51466 0.07755,0.36462 0.04554,21.19592 -0.03508,22.82814 -0.07602,1.53921 -0.19206,2.46541 -0.424607,3.38909 -0.57705,2.29204 -1.820423,4.02831 -3.485073,4.86661 -0.529888,0.26685 -1.096398,0.34971 -1.236532,0.18086 z"
       id="path1" /></g></svg>
