<?xml version="1.0" encoding="UTF-8" standalone="no"?>
<!-- Created with Inkscape (http://www.inkscape.org/) -->

<svg
   width="30.398806mm"
   height="22.800159mm"
   viewBox="0 0 114.89313 86.173833"
   version="1.1"
   id="svg1"
   xml:space="preserve"
   sodipodi:docname="menu-bar.svg"
   inkscape:version="1.3.2 (091e20e, 2023-11-25, custom)"
   xmlns:inkscape="http://www.inkscape.org/namespaces/inkscape"
   xmlns:sodipodi="http://sodipodi.sourceforge.net/DTD/sodipodi-0.dtd"
   xmlns="http://www.w3.org/2000/svg"
   xmlns:svg="http://www.w3.org/2000/svg"><sodipodi:namedview
     id="namedview1"
     pagecolor="#ffffff"
     bordercolor="#000000"
     borderopacity="0.25"
     inkscape:showpageshadow="2"
     inkscape:pageopacity="0.0"
     inkscape:pagecheckerboard="0"
     inkscape:deskcolor="#d1d1d1"
     inkscape:document-units="mm"
     inkscape:zoom="1.5732012"
     inkscape:cx="-68.33201"
     inkscape:cy="86.765761"
     inkscape:window-width="1920"
     inkscape:window-height="991"
     inkscape:window-x="-9"
     inkscape:window-y="-9"
     inkscape:window-maximized="1"
     inkscape:current-layer="layer1" /><defs
     id="defs1"><clipPath
       clipPathUnits="userSpaceOnUse"
       id="clipPath23"><path
         style="fill:#ffe6d5;stroke-width:0.999998"
         d="m 76.041996,195.44905 c -8.693478,-3.02709 -15.885633,-10.04844 -18.666317,-18.22304 -1.895708,-5.57287 -1.784509,-12.49956 0.290195,-18.08313 3.210814,-8.64107 9.756211,-15.37082 20.228359,-20.79816 3.315396,-1.71822 5.204063,-3.09069 6.914724,-5.02492 1.519356,-1.7178 2.360459,-2.94396 4.99523,-7.28145 1.232302,-2.02882 2.767079,-4.3446 3.410604,-5.14629 2.890485,-3.60096 6.148795,-5.35398 10.484199,-5.64076 4.05453,-0.26821 7.46721,0.61069 10.31922,2.65764 1.98267,1.423 2.87304,2.70158 5.96696,8.5687 1.64663,3.12256 2.67298,4.51234 4.47214,6.05613 1.73981,1.49283 2.85476,2.0865 5.78943,3.08253 6.30106,2.13861 7.4467,2.64231 10.33622,4.54461 3.26397,2.14883 5.50756,4.47051 7.44566,7.70489 2.43396,4.06198 3.43979,7.97711 3.27311,12.74025 -0.0887,2.53418 -1.07292,6.49624 -2.16519,8.71625 -2.08513,4.23803 -5.15035,7.5737 -9.2289,10.04326 -4.5836,2.77542 -7.66234,3.57051 -18.07501,4.66805 -5.61297,0.59161 -7.8382,0.95959 -9.84541,1.62811 -1.72356,0.57409 -5.23287,2.6639 -8.97804,5.34652 -4.95992,3.5528 -7.97336,4.97113 -12.18812,5.73655 -3.413302,0.61987 -6.415111,0.60764 -10.117685,-0.0414 -2.12502,-0.37246 -2.142093,-0.37706 -4.661429,-1.2542 z"
         id="path24" /></clipPath><clipPath
       clipPathUnits="userSpaceOnUse"
       id="clipPath24"><ellipse
         style="fill:#ffe6d5;fill-opacity:1;stroke-width:1.32684;stroke-linecap:round;stroke-linejoin:round"
         id="ellipse24"
         cx="153.84317"
         cy="41.460358"
         rx="46.722733"
         ry="54.507675"
         transform="matrix(0.83664133,0.54775112,-0.45371576,0.89114646,0,0)" /></clipPath></defs><g
     inkscape:label="Layer 1"
     inkscape:groupmode="layer"
     id="layer1"
     transform="translate(-388.29949,-550.5536)"><path
       style="fill:#f9f6ef;fill-opacity:1"
       d="m 393.46289,636.47607 c -2.09243,-0.66064 -3.41481,-1.72951 -4.40002,-3.55654 -0.69702,-1.29258 -0.76338,-1.58176 -0.76338,-3.32695 0,-1.74554 0.0663,-2.03424 0.76408,-3.32827 0.8481,-1.57277 1.54763,-2.25038 3.25085,-3.14897 l 1.14847,-0.60591 h 52.28042 52.28041 l 1.41563,0.76758 c 2.45797,1.33278 3.74477,3.4999 3.75007,6.31557 0.005,2.90723 -1.48792,5.25299 -4.13437,6.49406 l -1.25619,0.58909 -51.71826,0.0422 c -41.12592,0.0335 -51.90248,-0.016 -52.61771,-0.24182 z m 0,-35.97792 c -2.09243,-0.66064 -3.41481,-1.72951 -4.40002,-3.55654 -0.69702,-1.29258 -0.76338,-1.58176 -0.76338,-3.32695 0,-1.74554 0.0663,-2.03424 0.76408,-3.32827 0.8481,-1.57277 1.54763,-2.25038 3.25085,-3.14897 l 1.14847,-0.60592 h 52.28042 52.28041 l 1.41563,0.76759 c 2.45797,1.33278 3.74477,3.4999 3.75007,6.31557 0.005,2.90723 -1.48792,5.25299 -4.13437,6.49405 l -1.25619,0.5891 -51.71826,0.0422 c -41.12592,0.0335 -51.90248,-0.016 -52.61771,-0.24182 z m 0,-35.97792 c -2.09243,-0.66064 -3.41481,-1.72951 -4.40002,-3.55654 -0.69702,-1.29258 -0.76338,-1.58176 -0.76338,-3.32695 0,-1.74554 0.0663,-2.03424 0.76408,-3.32827 0.8481,-1.57277 1.54763,-2.25038 3.25085,-3.14897 l 1.14847,-0.60592 h 52.28042 52.28041 l 1.41695,0.76829 c 2.49821,1.35458 3.75193,3.4647 3.75193,6.31487 0,2.9099 -1.49359,5.25415 -4.13755,6.49405 l -1.25619,0.5891 -51.71826,0.0422 c -41.12592,0.0335 -51.90248,-0.016 -52.61771,-0.24182 z"
       id="path3" /></g></svg>
