<?xml version="1.0" encoding="UTF-8" standalone="no"?>
<!-- Created with Inkscape (http://www.inkscape.org/) -->

<svg
   width="144.3481mm"
   height="126.31322mm"
   viewBox="0 0 545.56763 477.40429"
   version="1.1"
   id="svg1"
   xml:space="preserve"
   xmlns:inkscape="http://www.inkscape.org/namespaces/inkscape"
   xmlns:sodipodi="http://sodipodi.sourceforge.net/DTD/sodipodi-0.dtd"
   xmlns="http://www.w3.org/2000/svg"
   xmlns:svg="http://www.w3.org/2000/svg"><sodipodi:namedview
     id="namedview1"
     pagecolor="#ffffff"
     bordercolor="#000000"
     borderopacity="0.25"
     inkscape:showpageshadow="2"
     inkscape:pageopacity="0.0"
     inkscape:pagecheckerboard="0"
     inkscape:deskcolor="#d1d1d1"
     inkscape:document-units="mm" /><defs
     id="defs1" /><g
     inkscape:label="Layer 1"
     inkscape:groupmode="layer"
     id="layer1"
     transform="translate(-124.06657,-189.59773)"><path
       style="fill:#a3004c;fill-opacity:1"
       d="m 184.30051,665.77046 c -10.14679,-2.39056 -18.48467,-9.26676 -23.05563,-19.01383 l -2.79446,-5.95892 -0.29436,-94.60318 -0.29435,-94.60319 6.16102,2.48457 c 13.49478,5.44207 24.32059,7.42212 40.82768,7.46743 22.02108,0.0604 38.22444,-4.13611 55.65315,-14.41375 3.9159,-2.30919 7.69311,-4.19853 8.3938,-4.19853 0.70069,0 3.97678,1.63193 7.28018,3.62652 7.91609,4.77971 16.86944,8.46107 27.92067,11.48017 7.89431,2.15666 11.4794,2.46572 28.7522,2.47859 18.16549,0.0135 20.53843,-0.21149 29.86666,-2.83235 10.40692,-2.92394 20.15382,-7.04871 29.06667,-12.30069 l 5.06666,-2.98558 5.06667,2.98558 c 8.91284,5.25198 18.65974,9.37675 29.06666,12.30069 9.32823,2.62086 11.70117,2.8459 29.86667,2.83235 17.27279,-0.0129 20.85789,-0.32193 28.7522,-2.47859 11.05123,-3.0191 20.00458,-6.70046 27.92066,-11.48017 3.30341,-1.99459 6.57949,-3.62652 7.28018,-3.62652 0.70069,0 4.4779,1.88934 8.3938,4.19853 17.42871,10.27764 33.63207,14.47419 55.65315,14.41375 16.50709,-0.0453 27.33291,-2.02536 40.82768,-7.46743 l 6.16102,-2.48457 -0.29435,94.60319 -0.29435,94.60318 -2.79447,5.95892 c -3.55206,7.57439 -9.27222,13.29455 -16.84662,16.84661 l -5.95891,2.79447 -72.26666,0.30215 -72.26667,0.30214 V 598.69986 530.39772 H 396.8504 328.58374 v 68.26666 68.26666 l -70.13333,-0.10714 c -38.57333,-0.0589 -71.94079,-0.53298 -74.1499,-1.05344 z m 5.08324,-239.53908 c -35.62721,-7.59827 -62.17299,-38.75709 -65.11443,-76.42981 -0.67715,-8.67269 -0.56317,-9.21222 15.44361,-73.10021 8.86919,-35.39967 17.09421,-66.2613 18.27784,-68.58139 3.36143,-6.58895 9.16756,-12.32214 15.75506,-15.55713 l 6.03792,-2.9651 H 396.8504 613.91705 l 4.93057,2.27982 c 6.71292,3.10395 13.38064,9.35629 16.46144,15.43595 1.48751,2.93548 9.31251,32.00408 18.68211,69.40102 16.0034,63.87452 16.11746,64.41441 15.44031,73.08704 -2.489,31.87809 -22.34057,60.06233 -50.63879,71.89438 -30.11598,12.59208 -63.05915,5.52262 -86.7423,-18.61453 l -7.2,-7.33802 -7.2,7.35142 c -32.25871,32.93713 -81.34128,32.93713 -113.59999,0 l -7.2,-7.35142 -7.2,7.35142 c -32.25871,32.93713 -81.34128,32.93713 -113.59999,0 l -7.2,-7.35142 -7.2,7.33802 c -19.72506,20.10318 -46.43434,28.65926 -72.26666,23.14996 z"
       id="path1" /></g></svg>
